<?xml version="1.0" encoding="utf-8"?>
<!-- Generator: Adobe Illustrator 16.0.0, SVG Export Plug-In . SVG Version: 6.00 Build 0)  -->
<!DOCTYPE svg PUBLIC "-//W3C//DTD SVG 1.1//EN" "http://www.w3.org/Graphics/SVG/1.1/DTD/svg11.dtd">
<svg version="1.1" id="Layer_1" xmlns="http://www.w3.org/2000/svg" xmlns:xlink="http://www.w3.org/1999/xlink" x="0px" y="0px"
	 width="68.364px" height="11.759px" viewBox="3.318 2 68.364 11.759" enable-background="new 3.318 2 68.364 11.759"
	 xml:space="preserve">
<polygon fill="#F94830" points="9.5,2 11.563,5.66 15.682,6.491 12.838,9.585 13.321,13.759 9.5,12.01 5.68,13.759 6.162,9.585 
	3.318,6.49 7.437,5.66 "/>
<polygon fill="#F94830" points="23.5,2 25.563,5.66 29.682,6.491 26.838,9.585 27.321,13.759 23.5,12.01 19.68,13.759 20.162,9.585 
	17.318,6.491 21.437,5.661 "/>
<polygon fill="#F94830" points="37.5,2 39.563,5.66 43.682,6.491 40.838,9.585 41.32,13.759 37.5,12.01 33.681,13.759 34.162,9.585 
	31.318,6.491 35.438,5.661 "/>
<polygon fill="#F94830" points="51.5,2 53.563,5.66 57.682,6.491 54.838,9.585 55.32,13.759 51.5,12.01 47.68,13.759 48.162,9.585 
	45.318,6.491 49.438,5.661 "/>
<polygon fill="#F94830" points="65.5,2 67.563,5.66 71.682,6.491 68.838,9.585 69.32,13.759 65.5,12.01 61.68,13.759 62.162,9.585 
	59.318,6.491 63.438,5.661 "/>
</svg>
